#Comment line ignore any data following # character 
#Hierarchical Translation and Rotation (.htr) file 
[Header]	
#Header keywords are followed by a single value 
FileType HTR		#Single word string
DataType HTRS		#Translation followed by rotation and scale data
FileVersion 1		#integer
NumSegments 84		#integer
NumFrames 2		#integer
DataFrameRate 30		#integer, data frame rate in this file
EulerRotationOrder ZYX
CalibrationUnits mm
RotationUnits Degrees
GlobalAxisofGravity Y
BoneLengthAxis Y
ScaleFactor 1.00
[SegmentNames&Hierarchy]
#CHILD	PARENT
MASTER GLOBAL
root MASTER
chest root
L_mid_tent01 root
R_mid_tent01 root
spine01 root
Bip01_Neck chest
L_humerus chest
R_humerus chest
weapon_bone chest
Bip01_Head Bip01_Neck
eye_left_bone Bip01_Head
eye_right_bone Bip01_Head
L_forearm L_humerus
L_front_hand L_forearm
L_weapon_bone L_forearm
L_front_hand01_01 L_front_hand
L_front_hand02_01 L_front_hand
L_front_hand03_01 L_front_hand
L_front_hand01_02 L_front_hand01_01
L_front_hand02_02 L_front_hand02_01
L_front_hand03_02 L_front_hand03_01
R_forearm R_humerus
R_front_hand R_forearm
R_weapon_bone R_forearm
R_front_hand01_01 R_front_hand
R_front_hand02_01 R_front_hand
R_front_hand03_01 R_front_hand
R_front_hand01_02 R_front_hand01_01
R_front_hand02_02 R_front_hand02_01
R_front_hand03_02 R_front_hand03_01
null_rope01_connect L_mid_tent01
Rope1_Seg01 null_rope01_connect
Rope1_Seg02 Rope1_Seg01
Rope1_Seg03 Rope1_Seg02
Rope1_Seg04 Rope1_Seg03
Rope1_Seg05 Rope1_Seg04
Rope1_Seg06 Rope1_Seg05
Rope1_Seg07 Rope1_Seg06
Rope1_Seg09 Rope1_Seg07
L_mid_hand01 Rope1_Seg09
L_mid_hand02 Rope1_Seg09
L_mid_hand03 Rope1_Seg09
null_rope02_connect R_mid_tent01
Rope2_Seg01 null_rope02_connect
Rope2_Seg02 Rope2_Seg01
Rope2_Seg03 Rope2_Seg02
Rope2_Seg04 Rope2_Seg03
Rope2_Seg05 Rope2_Seg04
Rope2_Seg06 Rope2_Seg05
Rope2_Seg07 Rope2_Seg06
Rope2_Seg09 Rope2_Seg07
R_mid_hand01 Rope2_Seg09
R_mid_hand02 Rope2_Seg09
R_mid_hand03 Rope2_Seg09
spine02 spine01
spine03 spine02
pelvis spine03
null_rope03_connect pelvis
null_rope04_connect pelvis
Rope3_Seg01 null_rope03_connect
Rope3_Seg02 Rope3_Seg01
Rope3_Seg03 Rope3_Seg02
Rope3_Seg04 Rope3_Seg03
Rope3_Seg05 Rope3_Seg04
Rope3_Seg06 Rope3_Seg05
Rope3_Seg07 Rope3_Seg06
Rope3_Seg08 Rope3_Seg07
Rope3_Seg09 Rope3_Seg08
R_rear_hand01 Rope3_Seg09
R_rear_hand02 Rope3_Seg09
R_rear_hand03 Rope3_Seg09
Rope4_Seg01 null_rope04_connect
Rope4_Seg02 Rope4_Seg01
Rope4_Seg03 Rope4_Seg02
Rope4_Seg04 Rope4_Seg03
Rope4_Seg05 Rope4_Seg04
Rope4_Seg06 Rope4_Seg05
Rope4_Seg07 Rope4_Seg06
Rope4_Seg08 Rope4_Seg07
Rope4_Seg09 Rope4_Seg08
L_rear_hand01 Rope4_Seg09
L_rear_hand02 Rope4_Seg09
L_rear_hand03 Rope4_Seg09
[BasePosition]
#SegmentName Tx, Ty, Tz, Rx, Ry, Rz, BoneLength
MASTER 0.000000 0.000000 0.000000 -90.000000 0.000000 0.000000 10.000000 
root 0.000000 0.000000 0.000000 0.000000 0.000000 0.000000 10.000000 
chest 0.000000 0.000000 0.000000 0.000000 0.000000 0.000000 10.000000 
L_mid_tent01 0.000000 0.000000 0.000000 0.000000 0.000000 0.000000 10.000000 
R_mid_tent01 0.000000 0.000000 0.000000 0.000000 0.000000 0.000000 10.000000 
spine01 0.000000 0.000000 0.000000 0.000000 0.000000 0.000000 10.000000 
Bip01_Neck 0.000000 0.000000 0.000000 0.000000 0.000000 0.000000 10.000000 
L_humerus 0.000000 0.000000 0.000000 0.000000 0.000000 0.000000 10.000000 
R_humerus 0.000000 0.000000 0.000000 0.000000 0.000000 0.000000 10.000000 
weapon_bone 0.000000 0.000000 0.000000 0.000000 0.000000 0.000000 10.000000 
Bip01_Head 0.000000 0.000000 0.000000 0.000000 0.000000 0.000000 10.000000 
eye_left_bone 0.000000 0.000000 0.000000 0.000000 0.000000 0.000000 10.000000 
eye_right_bone 0.000000 0.000000 0.000000 0.000000 0.000000 0.000000 10.000000 
L_forearm 0.000000 0.000000 0.000000 0.000000 0.000000 0.000000 10.000000 
L_front_hand 0.000000 0.000000 0.000000 0.000000 0.000000 0.000000 10.000000 
L_weapon_bone 0.000000 0.000000 0.000000 0.000000 0.000000 0.000000 10.000000 
L_front_hand01_01 0.000000 0.000000 0.000000 0.000000 0.000000 0.000000 10.000000 
L_front_hand02_01 0.000000 0.000000 0.000000 0.000000 0.000000 0.000000 10.000000 
L_front_hand03_01 0.000000 0.000000 0.000000 0.000000 0.000000 0.000000 10.000000 
L_front_hand01_02 0.000000 0.000000 0.000000 0.000000 0.000000 0.000000 10.000000 
L_front_hand02_02 0.000000 0.000000 0.000000 0.000000 0.000000 0.000000 10.000000 
L_front_hand03_02 0.000000 0.000000 0.000000 0.000000 0.000000 0.000000 10.000000 
R_forearm 0.000000 0.000000 0.000000 0.000000 0.000000 0.000000 10.000000 
R_front_hand 0.000000 0.000000 0.000000 0.000000 0.000000 0.000000 10.000000 
R_weapon_bone 0.000000 0.000000 0.000000 0.000000 0.000000 0.000000 10.000000 
R_front_hand01_01 0.000000 0.000000 0.000000 0.000000 0.000000 0.000000 10.000000 
R_front_hand02_01 0.000000 0.000000 0.000000 0.000000 0.000000 0.000000 10.000000 
R_front_hand03_01 0.000000 0.000000 0.000000 0.000000 0.000000 0.000000 10.000000 
R_front_hand01_02 0.000000 0.000000 0.000000 0.000000 0.000000 0.000000 10.000000 
R_front_hand02_02 0.000000 0.000000 0.000000 0.000000 0.000000 0.000000 10.000000 
R_front_hand03_02 0.000000 0.000000 0.000000 0.000000 0.000000 0.000000 10.000000 
null_rope01_connect 0.000000 0.000000 0.000000 0.000000 0.000000 0.000000 10.000000 
Rope1_Seg01 0.000000 0.000000 0.000000 0.000000 0.000000 0.000000 10.000000 
Rope1_Seg02 0.000000 0.000000 0.000000 0.000000 0.000000 0.000000 10.000000 
Rope1_Seg03 0.000000 0.000000 0.000000 0.000000 0.000000 0.000000 10.000000 
Rope1_Seg04 0.000000 0.000000 0.000000 0.000000 0.000000 0.000000 10.000000 
Rope1_Seg05 0.000000 0.000000 0.000000 0.000000 0.000000 0.000000 10.000000 
Rope1_Seg06 0.000000 0.000000 0.000000 0.000000 0.000000 0.000000 10.000000 
Rope1_Seg07 0.000000 0.000000 0.000000 0.000000 0.000000 0.000000 10.000000 
Rope1_Seg09 0.000000 0.000000 0.000000 0.000000 0.000000 0.000000 10.000000 
L_mid_hand01 0.000000 0.000000 0.000000 0.000000 0.000000 0.000000 10.000000 
L_mid_hand02 0.000000 0.000000 0.000000 0.000000 0.000000 0.000000 10.000000 
L_mid_hand03 0.000000 0.000000 0.000000 0.000000 0.000000 0.000000 10.000000 
null_rope02_connect 0.000000 0.000000 0.000000 0.000000 0.000000 0.000000 10.000000 
Rope2_Seg01 0.000000 0.000000 0.000000 0.000000 0.000000 0.000000 10.000000 
Rope2_Seg02 0.000000 0.000000 0.000000 0.000000 0.000000 0.000000 10.000000 
Rope2_Seg03 0.000000 0.000000 0.000000 0.000000 0.000000 0.000000 10.000000 
Rope2_Seg04 0.000000 0.000000 0.000000 0.000000 0.000000 0.000000 10.000000 
Rope2_Seg05 0.000000 0.000000 0.000000 0.000000 0.000000 0.000000 10.000000 
Rope2_Seg06 0.000000 0.000000 0.000000 0.000000 0.000000 0.000000 10.000000 
Rope2_Seg07 0.000000 0.000000 0.000000 0.000000 0.000000 0.000000 10.000000 
Rope2_Seg09 0.000000 0.000000 0.000000 0.000000 0.000000 0.000000 10.000000 
R_mid_hand01 0.000000 0.000000 0.000000 0.000000 0.000000 0.000000 10.000000 
R_mid_hand02 0.000000 0.000000 0.000000 0.000000 0.000000 0.000000 10.000000 
R_mid_hand03 0.000000 0.000000 0.000000 0.000000 0.000000 0.000000 10.000000 
spine02 0.000000 0.000000 0.000000 0.000000 0.000000 0.000000 10.000000 
spine03 0.000000 0.000000 0.000000 0.000000 0.000000 0.000000 10.000000 
pelvis 0.000000 0.000000 0.000000 0.000000 0.000000 0.000000 10.000000 
null_rope03_connect 0.000000 0.000000 0.000000 0.000000 0.000000 0.000000 10.000000 
null_rope04_connect 0.000000 0.000000 0.000000 0.000000 0.000000 0.000000 10.000000 
Rope3_Seg01 0.000000 0.000000 0.000000 0.000000 0.000000 0.000000 10.000000 
Rope3_Seg02 0.000000 0.000000 0.000000 0.000000 0.000000 0.000000 10.000000 
Rope3_Seg03 0.000000 0.000000 0.000000 0.000000 0.000000 0.000000 10.000000 
Rope3_Seg04 0.000000 0.000000 0.000000 0.000000 0.000000 0.000000 10.000000 
Rope3_Seg05 0.000000 0.000000 0.000000 0.000000 0.000000 0.000000 10.000000 
Rope3_Seg06 0.000000 0.000000 0.000000 0.000000 0.000000 0.000000 10.000000 
Rope3_Seg07 0.000000 0.000000 0.000000 0.000000 0.000000 0.000000 10.000000 
Rope3_Seg08 0.000000 0.000000 0.000000 0.000000 0.000000 0.000000 10.000000 
Rope3_Seg09 0.000000 0.000000 0.000000 0.000000 0.000000 0.000000 10.000000 
R_rear_hand01 0.000000 0.000000 0.000000 0.000000 0.000000 0.000000 10.000000 
R_rear_hand02 0.000000 0.000000 0.000000 0.000000 0.000000 0.000000 10.000000 
R_rear_hand03 0.000000 0.000000 0.000000 0.000000 0.000000 0.000000 10.000000 
Rope4_Seg01 0.000000 0.000000 0.000000 0.000000 0.000000 0.000000 10.000000 
Rope4_Seg02 0.000000 0.000000 0.000000 0.000000 0.000000 0.000000 10.000000 
Rope4_Seg03 0.000000 0.000000 0.000000 0.000000 0.000000 0.000000 10.000000 
Rope4_Seg04 0.000000 0.000000 0.000000 0.000000 0.000000 0.000000 10.000000 
Rope4_Seg05 0.000000 0.000000 0.000000 0.000000 0.000000 0.000000 10.000000 
Rope4_Seg06 0.000000 0.000000 0.000000 0.000000 0.000000 0.000000 10.000000 
Rope4_Seg07 0.000000 0.000000 0.000000 0.000000 0.000000 0.000000 10.000000 
Rope4_Seg08 0.000000 0.000000 0.000000 0.000000 0.000000 0.000000 10.000000 
Rope4_Seg09 0.000000 0.000000 0.000000 0.000000 0.000000 0.000000 10.000000 
L_rear_hand01 0.000000 0.000000 0.000000 0.000000 0.000000 0.000000 10.000000 
L_rear_hand02 0.000000 0.000000 0.000000 0.000000 0.000000 0.000000 10.000000 
L_rear_hand03 0.000000 0.000000 0.000000 0.000000 0.000000 0.000000 10.000000 
#Beginning of Data. Separated by tabs
#Fr	Tx	Ty	Tz	Rx	Ry	Rz	SF
[MASTER]
36 1393.288330 5888.180664 315.080475 0.001660 0.001660 0.001660 6058.977051
37 1234.966431 6092.906250 255.977386 0.001660 0.001660 0.001660 6222.071777
[root]
36 -14.488671 -78.021858 1011.502136 -83.305199 -20.463768 -80.536430 1014.610229
37 -15.624231 -73.817146 1017.671204 -73.079506 -21.585100 -82.029907 1020.464539
[chest]
36 -84.512650 -34.090519 0.000000 -14.934278 -6.743178 -176.613419 91.129311
37 -84.512650 -34.090519 0.000000 -9.050931 -7.303481 -174.345596 91.129311
[L_mid_tent01]
36 27.298702 22.179258 -249.918701 -6.486728 -2.012227 -23.257263 252.381653
37 27.298691 22.179258 -249.918701 -7.695286 -3.638332 -24.895285 252.381653
[R_mid_tent01]
36 23.228794 24.509907 226.238495 164.542068 -8.229403 78.258629 228.744751
37 23.228794 24.509907 226.238495 165.434616 -2.450044 78.845879 228.744751
[spine01]
36 -0.361383 -0.195265 0.000000 0.001950 0.001307 22.317625 0.410763
37 -0.361383 -0.195265 0.000000 0.001949 0.001308 22.277746 0.410763
[Bip01_Neck]
36 165.484543 71.581718 0.000119 176.643677 -1.657967 43.431911 180.302734
37 165.484543 71.581718 0.000119 176.643677 -1.657967 43.431911 180.302734
[L_humerus]
36 -13.983130 -135.272980 -120.471481 101.444939 46.790554 -174.505768 181.680161
37 -13.983130 -135.272980 -120.471481 93.457222 48.942341 177.561493 181.680161
[R_humerus]
36 -13.983309 -135.273102 125.287651 -172.966385 -64.879723 -91.914513 184.909012
37 -13.983309 -135.273102 125.287651 -173.188034 -70.979378 -91.749290 184.909012
[weapon_bone]
36 235.964890 -300.705902 0.000000 0.000000 -89.951546 -128.212341 382.234833
37 235.964890 -300.705902 0.000000 0.000000 -89.951546 -128.212341 382.234833
[Bip01_Head]
36 213.432617 185.749359 11.338347 33.400612 6.147146 -43.832073 283.169312
37 213.434799 185.742477 11.426116 27.693813 6.147500 -43.832474 283.169983
[eye_left_bone]
36 -24.626970 125.451866 -64.772606 0.000000 -90.000000 -99.840431 143.318359
37 -24.626970 125.451866 -64.772606 0.000000 -90.000000 -99.840431 143.318359
[eye_right_bone]
36 -24.626970 125.451866 64.327362 0.000000 -89.965736 80.156380 143.117676
37 -24.626970 125.451866 64.327362 0.000000 -89.965736 80.156380 143.117676
[L_forearm]
36 322.776093 0.000000 -0.000119 0.000407 -0.002312 -109.959930 322.776093
37 322.776093 0.000000 -0.000119 0.000405 -0.002312 -109.873772 322.776093
[L_front_hand]
36 241.149185 -0.042021 -3.300071 -178.667953 -1.835447 -27.422350 241.171753
37 241.149185 -0.042021 -3.300071 -178.667953 -1.835447 -27.422350 241.171753
[L_weapon_bone]
36 156.183838 0.000000 0.000000 0.000014 0.000007 0.000001 156.183838
37 156.183838 0.000000 0.000000 0.000014 0.000007 0.000001 156.183838
[L_front_hand01_01]
36 86.095154 20.947098 -0.655860 -0.366594 -0.477154 75.385574 88.609184
37 86.095154 20.947098 -0.655860 -0.366594 -0.477154 75.385574 88.609184
[L_front_hand02_01]
36 86.935165 -11.437475 24.513514 154.399796 -59.883835 -61.369587 91.046425
37 86.935165 -11.437475 24.513514 154.399796 -59.883835 -61.369587 91.046425
[L_front_hand03_01]
36 86.637497 -14.123976 -20.424902 -153.913849 58.118122 -62.702866 90.126129
37 86.637497 -14.123976 -20.424902 -153.913849 58.118122 -62.702866 90.126129
[L_front_hand01_02]
36 71.020905 -0.000179 0.000030 0.000334 -0.002323 -106.374191 71.020905
37 71.020905 -0.000179 0.000030 0.000334 -0.002323 -106.374878 71.020905
[L_front_hand02_02]
36 71.020927 -0.000119 0.000060 0.000334 -0.002323 -106.374191 71.020927
37 71.020927 -0.000119 0.000060 0.000334 -0.002323 -106.374878 71.020927
[L_front_hand03_02]
36 71.020905 -0.000060 0.000060 0.000334 -0.002323 -106.374191 71.020905
37 71.020905 -0.000060 0.000060 0.000334 -0.002323 -106.374878 71.020905
[R_forearm]
36 322.776428 -0.000060 0.000030 0.201791 0.066117 -108.607368 322.776428
37 322.776428 -0.000060 0.000030 0.201841 0.065964 -108.520470 322.776428
[R_front_hand]
36 238.847015 -0.006795 2.210259 -2.635298 -10.645461 -26.312506 238.857239
37 238.847015 -0.006795 2.210259 -2.635298 -10.645461 -26.312506 238.857239
[R_weapon_bone]
36 155.664093 0.002503 -0.000030 0.003487 0.001180 -90.988930 155.664078
37 155.664093 0.002503 -0.000030 0.003487 0.001180 -90.988930 155.664078
[R_front_hand01_01]
36 87.624611 14.231146 22.918642 -154.633514 -59.950634 61.746063 91.683487
37 87.624611 14.231146 22.918642 -154.633499 -59.950619 61.746044 91.683487
[R_front_hand02_01]
36 89.356956 14.367283 -19.491137 154.602661 58.302849 63.744389 92.579636
37 89.356956 14.367283 -19.491137 154.602661 58.302849 63.744389 92.579636
[R_front_hand03_01]
36 87.286232 -22.307278 -0.143439 0.162155 -0.423168 -75.767921 90.091743
37 87.286232 -22.307278 -0.143439 0.162155 -0.423168 -75.767921 90.091743
[R_front_hand01_02]
36 71.020905 0.000060 0.000119 0.002323 -0.000334 106.381714 71.020905
37 71.020905 0.000060 0.000119 0.002323 -0.000334 106.381714 71.020905
[R_front_hand02_02]
36 71.020844 -0.000030 -0.000119 0.002323 -0.000334 106.381714 71.020836
37 71.020844 -0.000030 -0.000119 0.002323 -0.000334 106.381714 71.020836
[R_front_hand03_02]
36 71.020905 0.000000 0.000030 0.002323 -0.000334 106.381714 71.020905
37 71.020905 0.000000 0.000030 0.002323 -0.000334 106.381714 71.020905
[null_rope01_connect]
36 328.732483 0.000000 -0.000238 88.752632 -81.228058 45.028980 328.732483
37 328.732483 0.000000 -0.000238 54.614388 -76.437096 81.571526 328.732483
[Rope1_Seg01]
36 0.000000 0.000000 0.000000 113.921158 -9.800077 -72.593819 0.000000
37 0.000000 0.000000 0.000000 105.852852 -2.146650 -77.794067 0.000000
[Rope1_Seg02]
36 139.999863 -0.000179 0.000000 3.025535 3.783296 0.898578 139.999863
37 139.999863 -0.000179 0.000000 5.512012 4.450765 3.615739 139.999863
[Rope1_Seg03]
36 139.999924 0.000060 -0.000060 4.759788 2.470389 4.977698 139.999924
37 139.999924 0.000060 -0.000060 6.910370 2.811601 6.895886 139.999924
[Rope1_Seg04]
36 139.999924 -0.000060 -0.000119 9.668505 0.817292 11.790092 139.999924
37 139.999924 -0.000060 -0.000119 13.006252 -1.252695 15.101636 139.999924
[Rope1_Seg05]
36 139.999832 0.000119 -0.000060 -10.692991 4.111306 -25.862474 139.999832
37 139.999832 0.000119 -0.000060 -9.050169 11.181580 -25.683661 139.999832
[Rope1_Seg06]
36 139.999954 0.000119 -0.000060 -6.893099 11.724178 -47.553284 139.999954
37 139.999954 0.000119 -0.000060 -11.046908 20.462957 -52.226120 139.999954
[Rope1_Seg07]
36 139.999985 0.000060 0.000000 1.863659 4.043986 -12.056464 139.999985
37 139.999985 0.000060 0.000000 1.172677 5.718365 -10.781237 139.999985
[Rope1_Seg09]
36 121.602913 0.000119 -0.000089 -89.793175 -1.359789 0.847147 121.602913
37 121.602913 0.000119 -0.000089 -89.793175 -1.359789 0.847147 121.602913
[L_mid_hand01]
36 103.859421 1.038730 8.195221 130.544373 -67.584534 -38.866943 104.187431
37 103.859421 1.038730 8.195221 130.544373 -67.584534 -38.866943 104.187431
[L_mid_hand02]
36 105.572853 -4.139662 -10.864139 -168.923172 43.409309 -73.498886 106.211075
37 105.572853 -4.139662 -10.864139 -168.923172 43.409309 -73.498886 106.211075
[L_mid_hand03]
36 104.641464 17.579376 -3.913581 -6.012627 17.808174 74.893669 106.179977
37 104.641464 17.579376 -3.913581 -6.012627 17.808174 74.893669 106.179977
[null_rope02_connect]
36 328.732849 0.000179 -0.000119 -99.116844 60.419697 46.953045 328.732849
37 328.732849 0.000179 -0.000119 -109.162621 60.652866 36.248875 328.732849
[Rope2_Seg01]
36 0.000067 0.000036 0.000000 65.208725 -15.337474 -39.341423 0.000076
37 0.000068 0.000033 0.000000 162.723587 -25.657398 -36.320915 0.000076
[Rope2_Seg02]
36 139.999741 -0.000060 -0.000119 -48.031368 -1.484688 -6.846862 139.999756
37 139.999741 -0.000060 -0.000119 -11.416589 -5.903741 2.070460 139.999756
[Rope2_Seg03]
36 140.000107 0.000030 0.000000 -16.974518 6.688625 -9.339509 140.000107
37 140.000107 0.000030 0.000000 -158.090591 -10.294950 1.448208 140.000107
[Rope2_Seg04]
36 139.999802 0.000000 -0.000060 -9.742431 19.094206 -15.712540 139.999802
37 139.999802 0.000000 -0.000060 -5.998028 18.363258 -11.080151 139.999802
[Rope2_Seg05]
36 139.999985 -0.000060 0.000119 -4.530098 22.369722 -14.142433 139.999985
37 139.999985 -0.000060 0.000119 -5.732879 31.445911 -17.315250 139.999985
[Rope2_Seg06]
36 139.999893 -0.000030 -0.000119 0.289573 -1.981929 1.945653 139.999893
37 139.999893 -0.000030 -0.000119 -0.136800 6.437928 -2.725746 139.999893
[Rope2_Seg07]
36 139.999893 0.000060 -0.000060 0.345313 -2.116678 2.018530 139.999893
37 139.999893 0.000060 -0.000060 -0.013302 -6.438685 3.524904 139.999893
[Rope2_Seg09]
36 121.338966 0.000089 -0.000060 33.793236 -1.359788 -0.847141 121.338966
37 121.338966 0.000089 -0.000060 33.793236 -1.359788 -0.847141 121.338966
[R_mid_hand01]
36 104.680779 11.144459 -10.335981 -16.212063 45.237247 70.462852 105.778534
37 104.680779 11.144459 -10.335981 -16.212063 45.237247 70.462852 105.778534
[R_mid_hand02]
36 104.070427 2.443552 8.231699 49.067368 -67.749771 39.286453 104.424065
37 104.070427 2.443552 8.231699 49.067368 -67.749771 39.286453 104.424065
[R_mid_hand03]
36 106.028137 -11.221827 -5.996406 -177.101105 15.551026 -76.585571 106.788818
37 106.028137 -11.221827 -5.996406 -177.101105 15.551026 -76.585571 106.788818
[spine02]
36 129.756927 0.001550 0.000119 0.411781 -4.039348 -13.684129 129.756927
37 129.756927 0.001550 0.000119 0.404687 -4.040128 -13.575910 129.756927
[spine03]
36 78.613998 0.081737 -4.898994 1.929121 3.815131 16.961578 78.766541
37 78.613998 0.081737 -4.898993 1.924174 3.817405 16.883871 78.766541
[pelvis]
36 169.435242 0.051022 0.000000 -43.534801 3.202343 -2.230798 169.435257
37 169.435242 0.051022 0.000000 -39.857407 3.438216 -0.724115 169.435257
[null_rope03_connect]
36 -1.257226 -2.466202 137.391083 164.959915 -52.297913 -75.110466 137.418976
37 -1.257226 -2.466202 137.391083 151.800201 -63.549175 -62.608425 137.418976
[null_rope04_connect]
36 -1.259640 -2.480268 -137.844437 164.959915 -52.297913 -75.110466 137.872513
37 -1.259640 -2.480268 -137.844437 151.800201 -63.549175 -62.608425 137.872513
[Rope3_Seg01]
36 0.000000 0.000000 0.000000 16.873585 0.137763 -69.770515 0.000000
37 0.000000 0.000000 0.000000 16.767405 0.098399 -67.345238 0.000000
[Rope3_Seg02]
36 139.999924 -0.000119 0.000060 -0.079526 0.161382 2.064010 139.999924
37 139.999924 -0.000119 0.000060 -0.077740 0.502755 2.197360 139.999924
[Rope3_Seg03]
36 139.999924 -0.000119 0.000119 -0.173234 1.071793 4.051575 139.999924
37 139.999924 -0.000119 0.000119 -0.308007 1.058186 4.520553 139.999924
[Rope3_Seg04]
36 139.999924 0.000119 0.000000 -0.644161 0.414934 4.827854 139.999924
37 139.999924 0.000119 0.000000 -0.602975 1.107499 5.052269 139.999924
[Rope3_Seg05]
36 139.999924 -0.000238 0.000060 0.392294 -5.773980 -7.734190 139.999924
37 139.999924 -0.000238 0.000060 1.130830 -1.843792 -7.917513 139.999924
[Rope3_Seg06]
36 139.999893 -0.000119 -0.000060 0.420325 -1.706814 -2.200880 139.999893
37 139.999893 -0.000119 -0.000060 0.580190 -0.531918 -2.083332 139.999893
[Rope3_Seg07]
36 139.999771 0.000060 -0.000119 0.499562 -0.898877 -1.050804 139.999771
37 139.999771 0.000060 -0.000119 0.583184 -0.294413 -1.107710 139.999771
[Rope3_Seg08]
36 139.999985 -0.000060 0.000000 0.533680 -0.529653 -0.609140 139.999985
37 139.999985 -0.000060 0.000000 0.576415 -0.183006 -0.652103 139.999985
[Rope3_Seg09]
36 90.185997 -0.000179 -0.000060 89.793228 -1.359877 -0.847183 90.185997
37 90.185997 -0.000179 -0.000060 89.793228 -1.359877 -0.847183 90.185997
[R_rear_hand01]
36 103.366196 -6.073594 -10.757982 -177.714203 24.565960 -73.910950 104.101845
37 103.366196 -6.073594 -10.757982 -177.714203 24.565960 -73.910950 104.101845
[R_rear_hand02]
36 100.509819 12.039542 -7.992327 -12.874829 36.868488 72.167213 101.543350
37 100.509819 12.039542 -7.992327 -12.874829 36.868488 72.167213 101.543350
[R_rear_hand03]
36 101.539970 5.215704 5.435467 71.484581 -71.816628 21.513813 101.819031
37 101.539970 5.215704 5.435467 71.484581 -71.816628 21.513813 101.819031
[Rope4_Seg01]
36 0.000010 0.000009 -0.000036 -107.944283 -30.737570 -87.215324 0.000039
37 0.000010 0.000008 -0.000033 -109.647568 -31.863642 -84.637291 0.000035
[Rope4_Seg02]
36 139.999985 0.000060 0.000119 12.525143 -31.328012 5.954586 139.999985
37 139.999985 0.000060 0.000119 11.536614 -28.492119 3.439370 139.999985
[Rope4_Seg03]
36 139.999924 0.000000 -0.000238 20.646915 -17.971148 10.015196 139.999924
37 139.999924 0.000000 -0.000238 21.022591 -19.026424 7.442455 139.999924
[Rope4_Seg04]
36 139.999985 0.000000 0.000119 -2.631133 -0.455952 -2.258717 139.999985
37 139.999985 0.000000 0.000119 1.136971 -1.014787 0.253727 139.999985
[Rope4_Seg05]
36 139.999802 -0.000060 -0.000119 -19.694996 6.558927 -12.423183 139.999802
37 139.999802 -0.000060 -0.000119 -18.470413 8.522122 -10.076533 139.999802
[Rope4_Seg06]
36 139.999924 0.000000 0.000060 -10.102026 6.488501 -6.313517 139.999924
37 139.999924 0.000000 0.000060 -12.296802 11.251420 -7.024500 139.999924
[Rope4_Seg07]
36 139.999802 0.000000 0.000000 -4.705006 4.170262 -3.052762 139.999802
37 139.999802 0.000000 0.000000 -4.447676 6.747482 -2.576205 139.999802
[Rope4_Seg08]
36 139.999924 0.000000 0.000119 -4.229743 2.881535 -1.773187 139.999924
37 139.999924 0.000000 0.000119 -3.866289 4.628162 -1.377938 139.999924
[Rope4_Seg09]
36 90.185791 0.000060 0.000060 -135.617828 2.228885 0.850567 90.185791
37 90.185791 0.000060 0.000060 -135.617828 2.228885 0.850567 90.185791
[L_rear_hand01]
36 101.696655 -8.392275 -7.654577 -12.874829 -36.868488 107.832764 102.329041
37 101.696655 -8.392275 -7.654577 -12.874829 -36.868488 107.832764 102.329041
[L_rear_hand02]
36 102.726799 -1.568258 5.773216 71.484581 71.816628 158.486160 102.900848
37 102.726799 -1.568258 5.773216 71.484581 71.816628 158.486160 102.900848
[L_rear_hand03]
36 104.552910 9.721220 -10.420293 -177.714203 -24.565960 -106.089035 105.519653
37 104.552910 9.721220 -10.420293 -177.714203 -24.565960 -106.089035 105.519653
